<svg xmlns="http://www.w3.org/2000/svg" height="732pt" version="1.1" viewBox="-76 0 732 732" width="732pt">
<g id="surface1">
<path d="M 315.5 88.300781 C 315.5 102.21875 304.21875 113.5 290.300781 113.5 C 276.382812 113.5 265.101562 102.21875 265.101562 88.300781 C 265.101562 74.382812 276.382812 63.101562 290.300781 63.101562 C 304.21875 63.101562 315.5 74.382812 315.5 88.300781 Z M 315.5 88.300781 " style=" stroke:none;fill-rule:nonzero;fill:rgb(94.509804%,94.901961%,94.901961%);fill-opacity:1;" />
<path d="M 580.601562 75.699219 L 454.398438 75.699219 L 454.398438 126.199219 L 530.101562 126.199219 L 530.101562 681.5 L 50.5 681.5 L 50.5 126.199219 L 126.199219 126.199219 L 126.199219 75.699219 L 0 75.699219 L 0 732 L 580.601562 732 Z M 580.601562 75.699219 " style=" stroke:none;fill-rule:nonzero;fill:rgb(44.705882%,40%,34.509804%);fill-opacity:1;" />
<path d="M 126.199219 151.398438 L 454.300781 151.398438 L 454.300781 75.699219 C 454.300781 61.800781 443 50.5 429.101562 50.5 L 353.398438 50.5 C 353.398438 22.699219 330.898438 0.101562 303 0 C 303 0 302.898438 0 302.898438 0 L 277.699219 0 C 249.800781 0 227.199219 22.601562 227.199219 50.5 L 151.5 50.5 C 137.601562 50.5 126.300781 61.800781 126.300781 75.699219 L 126.300781 151.398438 Z M 290.300781 63.101562 C 304.199219 63.101562 315.5 74.398438 315.5 88.300781 C 315.5 102.199219 304.199219 113.601562 290.300781 113.601562 C 276.398438 113.601562 265.101562 102.300781 265.101562 88.398438 C 265.101562 74.398438 276.398438 63.101562 290.300781 63.101562 Z M 290.300781 63.101562 " style=" stroke:none;fill-rule:nonzero;fill:rgb(76.862745%,60.392157%,42.352941%);fill-opacity:1;" />
<path d="M 227.199219 580.601562 L 290.300781 580.601562 L 290.300781 403.898438 C 241.5 403.898438 202 364.300781 202 315.601562 C 202 266.898438 241.601562 227.300781 290.300781 227.300781 L 290.300781 151.398438 L 126.199219 151.398438 L 126.199219 126.199219 L 50.5 126.199219 L 50.5 681.5 L 290.300781 681.5 L 290.300781 580.5 L 227.199219 580.5 Z M 126.199219 580.601562 Z M 126.199219 530.101562 Z M 126.199219 479.601562 Z M 126.199219 479.601562 " style=" stroke:none;fill-rule:nonzero;fill:rgb(96.078431%,91.372549%,71.372549%);fill-opacity:1;" />
<path d="M 530.101562 126.199219 L 454.398438 126.199219 L 454.398438 151.398438 L 290.300781 151.398438 L 290.300781 227.101562 C 339.101562 227.101562 378.601562 266.699219 378.601562 315.398438 C 378.601562 364.101562 339 403.699219 290.300781 403.699219 L 290.300781 681.398438 L 530.101562 681.398438 Z M 530.101562 126.199219 " style=" stroke:none;fill-rule:nonzero;fill:rgb(100%,98.039216%,90.980392%);fill-opacity:1;" />
<path d="M 331.199219 287.199219 L 290.300781 328.101562 L 290.300781 403.800781 C 339.101562 403.800781 378.601562 364.199219 378.601562 315.5 C 378.601562 266.800781 339 227.199219 290.300781 227.199219 L 290.300781 328.199219 Z M 331.199219 287.199219 " style=" stroke:none;fill-rule:nonzero;fill:rgb(38.039216%,76.862745%,43.137255%);fill-opacity:1;" />
<path d="M 202 315.5 C 202 364.300781 241.601562 403.800781 290.300781 403.800781 L 290.300781 328.101562 L 277.699219 340.699219 L 242 305 L 277.699219 340.699219 L 290.300781 328.101562 L 290.300781 227.101562 C 241.5 227.199219 202 266.699219 202 315.5 Z M 202 315.5 " style=" stroke:none;fill-rule:nonzero;fill:rgb(22.352941%,70.980392%,29.019608%);fill-opacity:1;" />
<path d="M 277.699219 358.601562 L 233.101562 314 L 250.898438 296.101562 L 277.699219 322.898438 L 322.300781 278.300781 L 340.199219 296.101562 Z M 277.699219 358.601562 " style=" stroke:none;fill-rule:nonzero;fill:rgb(94.509804%,94.901961%,94.901961%);fill-opacity:1;" />
<path d="M 176.699219 492.199219 L 126.199219 492.199219 C 119.199219 492.199219 113.601562 486.5 113.601562 479.601562 C 113.601562 472.601562 119.300781 467 126.199219 467 L 176.699219 467 C 183.699219 467 189.300781 472.699219 189.300781 479.601562 C 189.300781 486.601562 183.699219 492.199219 176.699219 492.199219 Z M 176.699219 492.199219 " style=" stroke:none;fill-rule:nonzero;fill:rgb(100%,73.72549%,67.058824%);fill-opacity:1;" />
<path d="M 454.398438 492.199219 L 227.199219 492.199219 C 220.199219 492.199219 214.601562 486.5 214.601562 479.601562 C 214.601562 472.601562 220.300781 467 227.199219 467 L 454.398438 467 C 461.398438 467 467 472.699219 467 479.601562 C 467 486.601562 461.300781 492.199219 454.398438 492.199219 Z M 454.398438 492.199219 " style=" stroke:none;fill-rule:nonzero;fill:rgb(100%,73.72549%,67.058824%);fill-opacity:1;" />
<path d="M 176.699219 542.699219 L 126.199219 542.699219 C 119.199219 542.699219 113.601562 537 113.601562 530.101562 C 113.601562 523.101562 119.300781 517.5 126.199219 517.5 L 176.699219 517.5 C 183.699219 517.5 189.300781 523.199219 189.300781 530.101562 C 189.300781 537 183.699219 542.699219 176.699219 542.699219 Z M 176.699219 542.699219 " style=" stroke:none;fill-rule:nonzero;fill:rgb(100%,73.72549%,67.058824%);fill-opacity:1;" />
<path d="M 454.398438 542.699219 L 227.199219 542.699219 C 220.199219 542.699219 214.601562 537 214.601562 530.101562 C 214.601562 523.101562 220.300781 517.5 227.199219 517.5 L 454.398438 517.5 C 461.398438 517.5 467 523.199219 467 530.101562 C 467 537 461.300781 542.699219 454.398438 542.699219 Z M 454.398438 542.699219 " style=" stroke:none;fill-rule:nonzero;fill:rgb(100%,73.72549%,67.058824%);fill-opacity:1;" />
<path d="M 176.699219 593.199219 L 126.199219 593.199219 C 119.199219 593.199219 113.601562 587.5 113.601562 580.601562 C 113.601562 573.601562 119.300781 568 126.199219 568 L 176.699219 568 C 183.699219 568 189.300781 573.699219 189.300781 580.601562 C 189.300781 587.5 183.699219 593.199219 176.699219 593.199219 Z M 176.699219 593.199219 " style=" stroke:none;fill-rule:nonzero;fill:rgb(100%,73.72549%,67.058824%);fill-opacity:1;" />
<path d="M 454.398438 593.199219 L 227.199219 593.199219 C 220.199219 593.199219 214.601562 587.5 214.601562 580.601562 C 214.601562 573.601562 220.300781 568 227.199219 568 L 454.398438 568 C 461.398438 568 467 573.699219 467 580.601562 C 467 587.5 461.300781 593.199219 454.398438 593.199219 Z M 454.398438 593.199219 " style=" stroke:none;fill-rule:nonzero;fill:rgb(100%,73.72549%,67.058824%);fill-opacity:1;" />
</g>
</svg>